<?xml version="1.0" standalone="no"?>
<!DOCTYPE svg PUBLIC "-//W3C//DTD SVG 20010904//EN"
 "http://www.w3.org/TR/2001/REC-SVG-20010904/DTD/svg10.dtd">
<svg version="1.0" xmlns="http://www.w3.org/2000/svg"
 width="512.000000pt" height="512.000000pt" viewBox="0 0 512.000000 512.000000"
 preserveAspectRatio="xMidYMid meet">
<metadata>
Created by potrace 1.14, written by Peter Selinger 2001-2017
</metadata>
<g transform="translate(0.000000,512.000000) scale(0.100000,-0.100000)"
fill="#000000" stroke="none">
<path d="M0 4310 l0 -810 280 0 280 0 0 530 0 530 530 0 530 0 0 280 0 280
-810 0 -810 0 0 -810z"/>
<path d="M3500 4840 l0 -280 530 0 530 0 0 -530 0 -530 280 0 280 0 0 810 0
810 -810 0 -810 0 0 -280z"/>
<path d="M2449 3636 c-2 -2 -26 -7 -53 -10 -217 -29 -459 -156 -617 -322 -123
-131 -219 -305 -266 -481 -21 -82 -26 -122 -27 -243 -1 -144 6 -217 24 -265 5
-14 8 -25 5 -25 -2 0 7 -30 19 -67 124 -364 430 -638 801 -720 97 -21 310 -25
410 -7 452 81 809 443 880 894 17 105 12 300 -9 395 -55 253 -208 487 -423
651 -107 81 -324 172 -458 191 -40 5 -282 13 -286 9z m222 -571 c95 -19 180
-66 253 -138 209 -207 205 -545 -9 -743 -208 -193 -525 -189 -720 10 -204 207
-205 525 -2 729 129 130 296 180 478 142z"/>
<path d="M0 810 l0 -810 810 0 810 0 0 280 0 280 -530 0 -530 0 0 530 0 530
-280 0 -280 0 0 -810z"/>
<path d="M4560 1090 l0 -530 -530 0 -530 0 0 -280 0 -280 810 0 810 0 0 810 0
810 -280 0 -280 0 0 -530z"/>
</g>
</svg>
